<svg xmlns="http://www.w3.org/2000/svg"><!-- Lucide icon path data, ISC license; see README --><symbol id="icon-arrow-up-right" viewBox="0 0 24 24"><path d="M7 7h10v10"/><path d="M7 17 17 7"/></symbol><symbol id="icon-arrow-right" viewBox="0 0 24 24"><path d="M5 12h14"/><path d="m12 5 7 7-7 7"/></symbol><symbol id="icon-plus" viewBox="0 0 24 24"><path d="M5 12h14"/><path d="M12 5v14"/></symbol><symbol id="icon-book-open" viewBox="0 0 24 24"><path d="M12 5v16"/><path d="M20.001 19A2 2 0 0022 17V5a2 2 0 00-1.999-2L16 3.002A5 5 0 0012 5a5 5 0 00-4-2H4a2 2 0 00-2 2v12a2 2 0 001.999 2H8a5 5 0 014 2 5 5 0 014-2z"/></symbol><symbol id="icon-sparkles" viewBox="0 0 24 24"><path d="M11.017 2.814a1 1 0 0 1 1.966 0l1.051 5.558a2 2 0 0 0 1.594 1.594l5.558 1.051a1 1 0 0 1 0 1.966l-5.558 1.051a2 2 0 0 0-1.594 1.594l-1.051 5.558a1 1 0 0 1-1.966 0l-1.051-5.558a2 2 0 0 0-1.594-1.594l-5.558-1.051a1 1 0 0 1 0-1.966l5.558-1.051a2 2 0 0 0 1.594-1.594z"/><path d="M20 2v4"/><path d="M22 4h-4"/><circle cx="4" cy="20" r="2"/></symbol><symbol id="icon-layout-dashboard" viewBox="0 0 24 24"><rect width="7" height="9" x="3" y="3" rx="1"/><rect width="7" height="5" x="14" y="3" rx="1"/><rect width="7" height="9" x="14" y="12" rx="1"/><rect width="7" height="5" x="3" y="16" rx="1"/></symbol><symbol id="icon-list-checks" viewBox="0 0 24 24"><path d="M13 5h8"/><path d="M13 12h8"/><path d="M13 19h8"/><path d="m3 17 2 2 4-4"/><path d="m3 7 2 2 4-4"/></symbol><symbol id="icon-messages-square" viewBox="0 0 24 24"><path d="M16 10a2 2 0 0 1-2 2H6.828a2 2 0 0 0-1.414.586l-2.202 2.202A.71.71 0 0 1 2 14.286V4a2 2 0 0 1 2-2h10a2 2 0 0 1 2 2z"/><path d="M20 9a2 2 0 0 1 2 2v10.286a.71.71 0 0 1-1.212.502l-2.202-2.202A2 2 0 0 0 17.172 19H10a2 2 0 0 1-2-2v-1"/></symbol><symbol id="icon-file-text" viewBox="0 0 24 24"><path d="M6 22a2 2 0 0 1-2-2V4a2 2 0 0 1 2-2h8a2.4 2.4 0 0 1 1.704.706l3.588 3.588A2.4 2.4 0 0 1 20 8v12a2 2 0 0 1-2 2z"/><path d="M14 2v5a1 1 0 0 0 1 1h5"/><path d="M10 9H8"/><path d="M16 13H8"/><path d="M16 17H8"/></symbol><symbol id="icon-settings" viewBox="0 0 24 24"><path d="M9.671 4.136a2.34 2.34 0 0 1 4.659 0 2.34 2.34 0 0 0 3.319 1.915 2.34 2.34 0 0 1 2.33 4.033 2.34 2.34 0 0 0 0 3.831 2.34 2.34 0 0 1-2.33 4.033 2.34 2.34 0 0 0-3.319 1.915 2.34 2.34 0 0 1-4.659 0 2.34 2.34 0 0 0-3.32-1.915 2.34 2.34 0 0 1-2.33-4.033 2.34 2.34 0 0 0 0-3.831A2.34 2.34 0 0 1 6.35 6.051a2.34 2.34 0 0 0 3.319-1.915"/><circle cx="12" cy="12" r="3"/></symbol><symbol id="icon-chevron-right" viewBox="0 0 24 24"><path d="m9 18 6-6-6-6"/></symbol><symbol id="icon-pause" viewBox="0 0 24 24"><rect x="14" y="3" width="5" height="18" rx="1"/><rect x="5" y="3" width="5" height="18" rx="1"/></symbol><symbol id="icon-play" viewBox="0 0 24 24"><path d="M5 5a2 2 0 0 1 3.008-1.728l11.997 6.998a2 2 0 0 1 .003 3.458l-12 7A2 2 0 0 1 5 19z"/></symbol><symbol id="icon-search" viewBox="0 0 24 24"><path d="m21 21-4.34-4.34"/><circle cx="11" cy="11" r="8"/></symbol><symbol id="icon-x" viewBox="0 0 24 24"><path d="M18 6 6 18"/><path d="m6 6 12 12"/></symbol><symbol id="icon-check" viewBox="0 0 24 24"><path d="M20 6 9 17l-5-5"/></symbol><symbol id="icon-clock-3" viewBox="0 0 24 24"><circle cx="12" cy="12" r="10"/><path d="M12 6v6h4"/></symbol><symbol id="icon-circle-question-mark" viewBox="0 0 24 24"><circle cx="12" cy="12" r="10"/><path d="M9.09 9a3 3 0 0 1 5.83 1c0 2-3 3-3 3"/><path d="M12 17h.01"/></symbol><symbol id="icon-panel-left" viewBox="0 0 24 24"><rect width="18" height="18" x="3" y="3" rx="2"/><path d="M9 3v18"/></symbol><symbol id="icon-megaphone" viewBox="0 0 24 24"><path d="M11 6a13 13 0 0 0 8.4-2.8A1 1 0 0 1 21 4v12a1 1 0 0 1-1.6.8A13 13 0 0 0 11 14H5a2 2 0 0 1-2-2V8a2 2 0 0 1 2-2z"/><path d="M6 14a12 12 0 0 0 2.4 7.2 2 2 0 0 0 3.2-2.4A8 8 0 0 1 10 14"/><path d="M8 6v8"/></symbol><symbol id="icon-pencil" viewBox="0 0 24 24"><path d="M21.174 6.812a1 1 0 0 0-3.986-3.987L3.842 16.174a2 2 0 0 0-.5.83l-1.321 4.352a.5.5 0 0 0 .623.622l4.353-1.32a2 2 0 0 0 .83-.497z"/><path d="m15 5 4 4"/></symbol><symbol id="icon-thumbs-up" viewBox="0 0 24 24"><path d="M15 5.88 14 10h5.83a2 2 0 0 1 1.92 2.56l-2.33 8A2 2 0 0 1 17.5 22H4a2 2 0 0 1-2-2v-8a2 2 0 0 1 2-2h2.76a2 2 0 0 0 1.79-1.11L12 2a3.13 3.13 0 0 1 3 3.88Z"/><path d="M7 10v12"/></symbol><symbol id="icon-trash" viewBox="0 0 24 24"><path d="M10 11v6"/><path d="M14 11v6"/><path d="M19 6v14a2 2 0 0 1-2 2H7a2 2 0 0 1-2-2V6"/><path d="M3 6h18"/><path d="M8 6V4a2 2 0 0 1 2-2h4a2 2 0 0 1 2 2v2"/></symbol><symbol id="icon-send" viewBox="0 0 24 24"><path d="M14.536 21.686a.5.5 0 0 0 .937-.024l6.5-19a.496.496 0 0 0-.635-.635l-19 6.5a.5.5 0 0 0-.024.937l7.93 3.18a2 2 0 0 1 1.112 1.11z"/><path d="m21.854 2.147-10.94 10.939"/></symbol><symbol id="icon-shield-check" viewBox="0 0 24 24"><path d="M20 13c0 5-3.5 7.5-7.66 8.95a1 1 0 0 1-.67-.01C7.5 20.5 4 18 4 13V6a1 1 0 0 1 1-1c2 0 4.5-1.2 6.24-2.72a1.17 1.17 0 0 1 1.52 0C14.51 3.81 17 5 19 5a1 1 0 0 1 1 1z"/><path d="m9 12 2 2 4-4"/></symbol><symbol id="icon-funnel" viewBox="0 0 24 24"><path d="M10 20a1 1 0 0 0 .553.895l2 1A1 1 0 0 0 14 21v-7a2 2 0 0 1 .517-1.341L21.74 4.67A1 1 0 0 0 21 3H3a1 1 0 0 0-.742 1.67l7.225 7.989A2 2 0 0 1 10 14z"/></symbol><symbol id="icon-grip-vertical" viewBox="0 0 24 24"><circle cx="9" cy="12" r="1"/><circle cx="9" cy="5" r="1"/><circle cx="9" cy="19" r="1"/><circle cx="15" cy="12" r="1"/><circle cx="15" cy="5" r="1"/><circle cx="15" cy="19" r="1"/></symbol><symbol id="icon-lightbulb" viewBox="0 0 24 24"><path d="M15 14c.2-1 .7-1.7 1.5-2.5 1-.9 1.5-2.2 1.5-3.5A6 6 0 0 0 6 8c0 1 .2 2.2 1.5 3.5.7.7 1.3 1.5 1.5 2.5"/><path d="M9 18h6"/><path d="M10 22h4"/></symbol></svg>